<?xml version="1.0" encoding="UTF-8" standalone="no"?>

<svg width="210" height="210" xmlns="http://www.w3.org/2000/svg">
 <g>
  <title>Layer 1</title>
  <path d="m135.757614,193.112747l0,-3.907379c0,0 -12.210587,0.244202 -15.629539,-2.442108c-3.418953,-2.68634 -5.616875,-7.326355 -5.616875,-14.408493c0,-7.082108 0,-22.223221 0,-22.223221c0,0 32.480133,-3.418976 42.73703,-13.675842c10.256882,-10.256897 13.187408,-26.863251 13.187408,-37.120148c0,-5.128441 0.053741,-18.912567 0.053741,-26.118439c0,-4.401215 0.77771,-12.237568 6.750961,-12.237568c2.970078,0 7.603775,0.014767 7.603775,0.014767l0,-5.128441c0,0 -6.349503,-0.244202 -10.256882,-0.244202c-3.907394,0 -13.30954,0.610512 -18.07164,5.372643c-4.762146,4.762138 -7.814774,17.827446 -7.814774,40.294899c0,22.467438 -1.953705,28.572723 -7.570572,34.189606c-8.426178,8.426178 -26.619049,9.035812 -26.619049,9.035812c0,0 0,-56.657066 0,-64.471825c0,-7.814758 -0.244194,-11.966362 3.418976,-15.629532c3.66317,-3.663181 15.873749,-3.174736 15.873749,-3.174736l0,-5.616867l-59.988777,0l0,5.616867c0,0 12.210579,-0.488445 15.873734,3.174736c3.663177,3.66317 3.418976,7.814774 3.418976,15.629532c0,7.814758 0,64.471825 0,64.471825c0,0 -18.192871,-0.609634 -26.619049,-9.035812c-5.616882,-5.616837 -7.570572,-11.722122 -7.570572,-34.189575c0,-22.467453 -3.052643,-35.532761 -7.814758,-40.294888c-4.762131,-4.762115 -14.164265,-5.37265 -18.071644,-5.37265c-3.907379,0 -10.256887,0.244221 -10.256887,0.244221l0,5.128429c0,0 4.633688,-0.014771 7.603788,-0.014771c5.973225,0 6.750935,7.836376 6.750935,12.237591c0,7.205849 0.053745,20.989975 0.053745,26.118408c0,10.256897 2.930553,26.863266 13.187424,37.120148c10.256889,10.256897 42.737003,13.675842 42.737003,13.675842c0,0 0,15.141113 0,22.223251c0,7.082138 -2.197914,11.722137 -5.616867,14.408463c-3.418961,2.68634 -15.629539,2.442123 -15.629539,2.442123l0,3.907379" id="path1873" fill-rule="evenodd" fill="#000000"/>
 </g>
</svg>